<svg width="14" height="14" viewBox="0 0 14 14" fill="none" xmlns="http://www.w3.org/2000/svg">
<g clip-path="url(#clip0_84_2890)">
<path d="M9.33331 2.9165H12.8333" stroke="white" stroke-width="2" stroke-linecap="round" stroke-linejoin="round"/>
<path d="M11.0833 1.1665V4.6665" stroke="white" stroke-width="2" stroke-linecap="round" stroke-linejoin="round"/>
<path d="M12.25 6.70833V11.0833C12.25 11.3928 12.1271 11.6895 11.9083 11.9083C11.6895 12.1271 11.3928 12.25 11.0833 12.25H2.91667C2.60725 12.25 2.3105 12.1271 2.09171 11.9083C1.87292 11.6895 1.75 11.3928 1.75 11.0833V2.91667C1.75 2.60725 1.87292 2.3105 2.09171 2.09171C2.3105 1.87292 2.60725 1.75 2.91667 1.75H7.29167" stroke="white" stroke-width="2" stroke-linecap="round" stroke-linejoin="round"/>
<path d="M12.25 8.75015L10.4498 6.94998C10.2311 6.73127 9.93436 6.6084 9.625 6.6084C9.31564 6.6084 9.01895 6.73127 8.80017 6.94998L3.5 12.2501" stroke="white" stroke-width="2" stroke-linecap="round" stroke-linejoin="round"/>
<path d="M5.24998 6.41683C5.89431 6.41683 6.41665 5.89449 6.41665 5.25016C6.41665 4.60583 5.89431 4.0835 5.24998 4.0835C4.60565 4.0835 4.08331 4.60583 4.08331 5.25016C4.08331 5.89449 4.60565 6.41683 5.24998 6.41683Z" stroke="white" stroke-width="2" stroke-linecap="round" stroke-linejoin="round"/>
</g>
<defs>
<clipPath id="clip0_84_2890">
<rect width="14" height="14" fill="white"/>
</clipPath>
</defs>
</svg>
